<mxfile host="Electron" modified="2023-10-30T09:24:24.435Z" agent="Mozilla/5.0 (Windows NT 10.0; Win64; x64) AppleWebKit/537.36 (KHTML, like Gecko) draw.io/22.0.3 Chrome/114.0.5735.289 Electron/25.8.4 Safari/537.36" etag="40Hxl-r7Aq9NKVyGFuXm" version="22.0.3" type="device">
  <diagram name="Page-1" id="P8ifUhwnRnow5DKPMkCz">
    <mxGraphModel dx="1434" dy="844" grid="1" gridSize="10" guides="1" tooltips="1" connect="1" arrows="1" fold="1" page="1" pageScale="1" pageWidth="850" pageHeight="1100" math="0" shadow="0">
      <root>
        <mxCell id="0" />
        <mxCell id="1" parent="0" />
        <mxCell id="AnnmAgtjaUtOk9DpN-qc-4" value=": Ticket information" style="shape=umlLifeline;perimeter=lifelinePerimeter;whiteSpace=wrap;html=1;container=1;dropTarget=0;collapsible=0;recursiveResize=0;outlineConnect=0;portConstraint=eastwest;newEdgeStyle={&quot;edgeStyle&quot;:&quot;elbowEdgeStyle&quot;,&quot;elbow&quot;:&quot;vertical&quot;,&quot;curved&quot;:0,&quot;rounded&quot;:0};" vertex="1" parent="1">
          <mxGeometry x="386" y="80" width="100" height="481" as="geometry" />
        </mxCell>
        <mxCell id="AnnmAgtjaUtOk9DpN-qc-50" value="" style="html=1;points=[[0,0,0,0,5],[0,1,0,0,-5],[1,0,0,0,5],[1,1,0,0,-5]];perimeter=orthogonalPerimeter;outlineConnect=0;targetShapes=umlLifeline;portConstraint=eastwest;newEdgeStyle={&quot;curved&quot;:0,&quot;rounded&quot;:0};" vertex="1" parent="AnnmAgtjaUtOk9DpN-qc-4">
          <mxGeometry x="45" y="98" width="10" height="41" as="geometry" />
        </mxCell>
        <mxCell id="AnnmAgtjaUtOk9DpN-qc-5" value=":Payment" style="shape=umlLifeline;perimeter=lifelinePerimeter;whiteSpace=wrap;html=1;container=1;dropTarget=0;collapsible=0;recursiveResize=0;outlineConnect=0;portConstraint=eastwest;newEdgeStyle={&quot;edgeStyle&quot;:&quot;elbowEdgeStyle&quot;,&quot;elbow&quot;:&quot;vertical&quot;,&quot;curved&quot;:0,&quot;rounded&quot;:0};" vertex="1" parent="1">
          <mxGeometry x="630" y="80" width="100" height="481" as="geometry" />
        </mxCell>
        <mxCell id="AnnmAgtjaUtOk9DpN-qc-6" value=":Applied problem" style="shape=umlLifeline;perimeter=lifelinePerimeter;whiteSpace=wrap;html=1;container=1;dropTarget=0;collapsible=0;recursiveResize=0;outlineConnect=0;portConstraint=eastwest;newEdgeStyle={&quot;curved&quot;:0,&quot;rounded&quot;:0};" vertex="1" parent="1">
          <mxGeometry x="175" y="80" width="100" height="481" as="geometry" />
        </mxCell>
        <mxCell id="AnnmAgtjaUtOk9DpN-qc-23" value="" style="html=1;points=[[0,0,0,0,5],[0,1,0,0,-5],[1,0,0,0,5],[1,1,0,0,-5]];perimeter=orthogonalPerimeter;outlineConnect=0;targetShapes=umlLifeline;portConstraint=eastwest;newEdgeStyle={&quot;curved&quot;:0,&quot;rounded&quot;:0};" vertex="1" parent="AnnmAgtjaUtOk9DpN-qc-6">
          <mxGeometry x="45" y="79" width="10" height="351" as="geometry" />
        </mxCell>
        <mxCell id="AnnmAgtjaUtOk9DpN-qc-24" value="find a seat of lowest price" style="html=1;align=left;spacingLeft=2;endArrow=block;rounded=0;edgeStyle=orthogonalEdgeStyle;curved=0;rounded=0;" edge="1" parent="AnnmAgtjaUtOk9DpN-qc-6">
          <mxGeometry relative="1" as="geometry">
            <mxPoint x="55" y="223" as="sourcePoint" />
            <Array as="points">
              <mxPoint x="80" y="253" />
            </Array>
            <mxPoint x="55" y="253" as="targetPoint" />
          </mxGeometry>
        </mxCell>
        <mxCell id="AnnmAgtjaUtOk9DpN-qc-7" value="" style="shape=umlLifeline;perimeter=lifelinePerimeter;whiteSpace=wrap;html=1;container=1;dropTarget=0;collapsible=0;recursiveResize=0;outlineConnect=0;portConstraint=eastwest;newEdgeStyle={&quot;curved&quot;:0,&quot;rounded&quot;:0};participant=umlActor;" vertex="1" parent="1">
          <mxGeometry x="50" y="80" width="20" height="481" as="geometry" />
        </mxCell>
        <mxCell id="AnnmAgtjaUtOk9DpN-qc-21" value="" style="html=1;points=[[0,0,0,0,5],[0,1,0,0,-5],[1,0,0,0,5],[1,1,0,0,-5]];perimeter=orthogonalPerimeter;outlineConnect=0;targetShapes=umlLifeline;portConstraint=eastwest;newEdgeStyle={&quot;curved&quot;:0,&quot;rounded&quot;:0};" vertex="1" parent="AnnmAgtjaUtOk9DpN-qc-7">
          <mxGeometry x="5" y="60" width="10" height="320" as="geometry" />
        </mxCell>
        <mxCell id="AnnmAgtjaUtOk9DpN-qc-9" value="browse available seats" style="html=1;verticalAlign=bottom;endArrow=block;curved=0;rounded=0;" edge="1" parent="1">
          <mxGeometry width="80" relative="1" as="geometry">
            <mxPoint x="65" y="160" as="sourcePoint" />
            <mxPoint x="220" y="160" as="targetPoint" />
          </mxGeometry>
        </mxCell>
        <mxCell id="AnnmAgtjaUtOk9DpN-qc-15" value="query ticket information" style="html=1;verticalAlign=bottom;endArrow=block;curved=0;rounded=0;" edge="1" parent="1" target="AnnmAgtjaUtOk9DpN-qc-4">
          <mxGeometry width="80" relative="1" as="geometry">
            <mxPoint x="230" y="178" as="sourcePoint" />
            <mxPoint x="381" y="178" as="targetPoint" />
          </mxGeometry>
        </mxCell>
        <mxCell id="AnnmAgtjaUtOk9DpN-qc-16" value="reponse ticket information" style="html=1;verticalAlign=bottom;endArrow=open;dashed=1;endSize=8;curved=0;rounded=0;" edge="1" parent="1" source="AnnmAgtjaUtOk9DpN-qc-4">
          <mxGeometry relative="1" as="geometry">
            <mxPoint x="372" y="220" as="sourcePoint" />
            <mxPoint x="230" y="220" as="targetPoint" />
          </mxGeometry>
        </mxCell>
        <mxCell id="AnnmAgtjaUtOk9DpN-qc-17" value="display available seats" style="html=1;verticalAlign=bottom;endArrow=open;dashed=1;endSize=8;curved=0;rounded=0;" edge="1" parent="1">
          <mxGeometry relative="1" as="geometry">
            <mxPoint x="220" y="240" as="sourcePoint" />
            <mxPoint x="65" y="240" as="targetPoint" />
          </mxGeometry>
        </mxCell>
        <mxCell id="AnnmAgtjaUtOk9DpN-qc-22" value="find a seat of lowest price" style="html=1;verticalAlign=bottom;endArrow=block;curved=0;rounded=0;" edge="1" parent="1">
          <mxGeometry width="80" relative="1" as="geometry">
            <mxPoint x="65" y="300" as="sourcePoint" />
            <mxPoint x="220" y="300" as="targetPoint" />
          </mxGeometry>
        </mxCell>
        <mxCell id="AnnmAgtjaUtOk9DpN-qc-25" value="display seat" style="html=1;verticalAlign=bottom;endArrow=open;dashed=1;endSize=8;curved=0;rounded=0;" edge="1" parent="1">
          <mxGeometry relative="1" as="geometry">
            <mxPoint x="220" y="336" as="sourcePoint" />
            <mxPoint x="65" y="336" as="targetPoint" />
          </mxGeometry>
        </mxCell>
        <mxCell id="AnnmAgtjaUtOk9DpN-qc-26" value="make payment" style="html=1;verticalAlign=bottom;endArrow=block;curved=0;rounded=0;" edge="1" parent="1" target="AnnmAgtjaUtOk9DpN-qc-52">
          <mxGeometry width="80" relative="1" as="geometry">
            <mxPoint x="65" y="370" as="sourcePoint" />
            <mxPoint x="760" y="370" as="targetPoint" />
          </mxGeometry>
        </mxCell>
        <mxCell id="AnnmAgtjaUtOk9DpN-qc-27" value="correct payment" style="html=1;verticalAlign=bottom;endArrow=open;dashed=1;endSize=8;curved=0;rounded=0;" edge="1" parent="1">
          <mxGeometry relative="1" as="geometry">
            <mxPoint x="674" y="430" as="sourcePoint" />
            <mxPoint x="230" y="430" as="targetPoint" />
          </mxGeometry>
        </mxCell>
        <mxCell id="AnnmAgtjaUtOk9DpN-qc-28" value="get ticket" style="html=1;verticalAlign=bottom;endArrow=open;dashed=1;endSize=8;curved=0;rounded=0;" edge="1" parent="1">
          <mxGeometry relative="1" as="geometry">
            <mxPoint x="220" y="460" as="sourcePoint" />
            <mxPoint x="65" y="460" as="targetPoint" />
          </mxGeometry>
        </mxCell>
        <mxCell id="AnnmAgtjaUtOk9DpN-qc-30" value="not correct payment" style="html=1;verticalAlign=bottom;endArrow=open;dashed=1;endSize=8;curved=0;rounded=0;" edge="1" parent="1">
          <mxGeometry relative="1" as="geometry">
            <mxPoint x="675" y="510" as="sourcePoint" />
            <mxPoint x="230" y="510" as="targetPoint" />
          </mxGeometry>
        </mxCell>
        <mxCell id="AnnmAgtjaUtOk9DpN-qc-35" value="alt" style="shape=umlFrame;whiteSpace=wrap;html=1;pointerEvents=0;" vertex="1" parent="1">
          <mxGeometry x="50" y="400" width="690" height="160" as="geometry" />
        </mxCell>
        <mxCell id="AnnmAgtjaUtOk9DpN-qc-40" value="" style="endArrow=none;dashed=1;html=1;rounded=0;" edge="1" parent="1">
          <mxGeometry width="50" height="50" relative="1" as="geometry">
            <mxPoint x="47" y="480" as="sourcePoint" />
            <mxPoint x="700" y="480" as="targetPoint" />
          </mxGeometry>
        </mxCell>
        <mxCell id="AnnmAgtjaUtOk9DpN-qc-41" value="" style="endArrow=none;dashed=1;html=1;rounded=0;" edge="1" parent="1">
          <mxGeometry width="50" height="50" relative="1" as="geometry">
            <mxPoint x="470" y="940" as="sourcePoint" />
            <mxPoint x="770" y="940" as="targetPoint" />
          </mxGeometry>
        </mxCell>
        <mxCell id="AnnmAgtjaUtOk9DpN-qc-42" value="[correct payment]" style="text;html=1;align=center;verticalAlign=middle;resizable=0;points=[];autosize=1;strokeColor=none;fillColor=none;" vertex="1" parent="1">
          <mxGeometry x="95" y="410" width="120" height="30" as="geometry" />
        </mxCell>
        <mxCell id="AnnmAgtjaUtOk9DpN-qc-43" value="[not correct payment]" style="text;html=1;align=center;verticalAlign=middle;resizable=0;points=[];autosize=1;strokeColor=none;fillColor=none;" vertex="1" parent="1">
          <mxGeometry x="50" y="530" width="140" height="30" as="geometry" />
        </mxCell>
        <mxCell id="AnnmAgtjaUtOk9DpN-qc-45" value="alt" style="shape=umlFrame;whiteSpace=wrap;html=1;pointerEvents=0;" vertex="1" parent="1">
          <mxGeometry x="20" y="250" width="730" height="430" as="geometry" />
        </mxCell>
        <mxCell id="AnnmAgtjaUtOk9DpN-qc-46" value="" style="endArrow=none;dashed=1;html=1;rounded=0;" edge="1" parent="1">
          <mxGeometry width="50" height="50" relative="1" as="geometry">
            <mxPoint x="20" y="590" as="sourcePoint" />
            <mxPoint x="748" y="590" as="targetPoint" />
          </mxGeometry>
        </mxCell>
        <mxCell id="AnnmAgtjaUtOk9DpN-qc-47" value="[is available seats]" style="text;html=1;align=center;verticalAlign=middle;resizable=0;points=[];autosize=1;strokeColor=none;fillColor=none;" vertex="1" parent="1">
          <mxGeometry x="83" y="251" width="120" height="30" as="geometry" />
        </mxCell>
        <mxCell id="AnnmAgtjaUtOk9DpN-qc-49" value="[no available seats]" style="text;html=1;align=center;verticalAlign=middle;resizable=0;points=[];autosize=1;strokeColor=none;fillColor=none;" vertex="1" parent="1">
          <mxGeometry x="26" y="588" width="130" height="30" as="geometry" />
        </mxCell>
        <mxCell id="AnnmAgtjaUtOk9DpN-qc-52" value="" style="html=1;points=[[0,0,0,0,5],[0,1,0,0,-5],[1,0,0,0,5],[1,1,0,0,-5]];perimeter=orthogonalPerimeter;outlineConnect=0;targetShapes=umlLifeline;portConstraint=eastwest;newEdgeStyle={&quot;curved&quot;:0,&quot;rounded&quot;:0};" vertex="1" parent="1">
          <mxGeometry x="675" y="370" width="10" height="140" as="geometry" />
        </mxCell>
      </root>
    </mxGraphModel>
  </diagram>
</mxfile>
